<?xml version="1.0" encoding="iso-8859-1"?>
<!-- Generator: Adobe Illustrator 19.0.0, SVG Export Plug-In . SVG Version: 6.00 Build 0)  -->
<svg version="1.1" id="Layer_1" xmlns="http://www.w3.org/2000/svg" xmlns:xlink="http://www.w3.org/1999/xlink" x="0px" y="0px"
	 viewBox="0 0 512.001 512.001" style="enable-background:new 0 0 512.001 512.001;" xml:space="preserve">
<path style="fill:#A4E276;" d="M501.803,381.787c0,0-47.323-49.302-108.564-57.092c3.143-2.738,6.227-5.599,9.229-8.602
	c58.981-58.981,65.695-147.897,65.695-147.897s-88.915,6.713-147.897,65.695c-4.069,4.069-7.881,8.285-11.468,12.601
	c6.549-23.535,10.982-53.019,10.982-77.386C319.78,75.711,254.7,0,254.7,0s-65.081,75.711-65.081,169.105
	c0,24.467,4.469,54.031,11.062,77.636c-3.647-4.403-7.527-8.703-11.675-12.85c-58.981-58.981-147.897-65.695-147.897-65.695
	s6.713,88.914,65.695,147.897c3.12,3.12,6.328,6.085,9.598,8.92c-60.087,8.709-106.204,56.775-106.204,56.775
	s55.76,58.126,124.544,58.126c5.722,0,11.351-0.41,16.867-1.147c-17.626,33.149-16.863,70.446-16.863,70.446
	s58.851,1.208,94.405-34.346c5.138-5.138,9.504-10.763,13.221-16.625l-2.539,53.76h37.446l-2.534-53.655
	c3.703,5.824,8.05,11.413,13.156,16.519c35.554,35.554,94.405,34.346,94.405,34.346s0.751-36.841-16.544-69.835
	c3.766,0.344,7.576,0.536,11.43,0.536C446.014,439.912,501.803,381.787,501.803,381.787z"/>
<path style="fill:#91DC5A;" d="M386.722,374.386H277.079l116.252-116.252c3.07-3.072,3.07-8.049,0-11.119
	c-3.072-3.069-8.049-3.069-11.119,0L265.96,363.266v-238.66c0-4.343-3.52-7.862-7.862-7.862c-4.342,0-7.862,3.519-7.862,7.862
	v238.881L133.761,247.015c-3.07-3.069-8.049-3.069-11.118,0c-3.07,3.072-3.07,8.049,0,11.119l116.252,116.252H115.891
	c-4.342,0-7.862,3.519-7.862,7.862c0,4.343,3.52,7.862,7.862,7.862h123.224l-35.445,35.445c-3.07,3.072-3.07,8.049,0,11.119
	c1.535,1.535,3.547,2.302,5.559,2.302s4.024-0.767,5.559-2.302l35.445-35.445v21.091c0,4.343,3.52,7.862,7.862,7.862
	c4.342,0,7.862-3.519,7.862-7.862v-20.869l34.283,34.283c1.536,1.535,3.548,2.302,5.56,2.302c2.012,0,4.024-0.767,5.56-2.302
	c3.07-3.072,3.07-8.049,0-11.119l-34.505-34.505h109.865c4.343,0,7.862-3.519,7.862-7.862
	C394.584,377.905,391.065,374.386,386.722,374.386z"/>
<g style="opacity:0.15;">
	<path style="fill:#328777;" d="M501.803,381.764c0,0-47.323-49.302-108.564-57.092c3.143-2.738,6.227-5.599,9.229-8.602
		c58.981-58.981,65.695-147.897,65.695-147.897s-78.111,5.898-136.473,55.202c-30.277,125.214-95.006,219.456-144.214,276.673
		c14.418-5.075,29.429-12.96,41.675-25.206c5.138-5.138,9.504-10.763,13.221-16.625l-2.539,53.76h37.446l-2.534-53.655
		c3.703,5.824,8.05,11.413,13.156,16.519c35.554,35.554,94.405,34.346,94.405,34.346s0.751-36.841-16.544-69.835
		c3.766,0.344,7.576,0.536,11.43,0.536C446.014,439.889,501.803,381.764,501.803,381.764z"/>
</g>
<g>
</g>
<g>
</g>
<g>
</g>
<g>
</g>
<g>
</g>
<g>
</g>
<g>
</g>
<g>
</g>
<g>
</g>
<g>
</g>
<g>
</g>
<g>
</g>
<g>
</g>
<g>
</g>
<g>
</g>
</svg>
